<svg width="111" height="111" viewBox="0 0 111 111" fill="none" xmlns="http://www.w3.org/2000/svg">
<path d="M45.2029 17.9959C45.2576 18.3842 44.9787 19.1172 45.5804 19.0789C48.1293 18.6194 64.3858 19.3196 65.3102 18.9695C65.4415 18.9203 65.8353 18.1162 65.797 17.8865C67.1152 18.1709 69.3469 18.3405 70.4026 19.1883C71.1793 19.8119 71.7482 21.0863 70.78 21.6826C70.3643 18.7999 66.426 17.8755 65.6876 21.0316C61.8915 21.0207 58.1009 21.0481 54.3048 21.0316C51.1432 21.0207 47.9816 21.0426 44.8201 21.0316C45.0553 18.2694 40.9911 18.8109 40.2144 20.7089C39.2681 20.326 39.8479 19.1664 39.837 18.4335C41.9757 19.0242 43.294 18.056 44.9295 17.7825C45.3123 17.7169 45.1811 18.0013 45.2029 18.0013V17.9959Z" fill="#EAE6E4"/>
<path d="M68.2913 24.7128C68.0123 25.9381 67.252 26.2936 66.1252 26.5562C65.9994 26.5835 65.9447 26.6929 65.8517 26.775C63.1058 26.507 45.5038 27.1251 44.4973 26.775C44.4153 26.7476 44.4426 26.6328 44.4426 26.5562C44.5083 26.4687 44.5958 26.3757 44.6614 26.2827C44.4153 25.7795 42.654 26.7203 42.4954 25.145C42.9275 25.2161 42.5774 24.33 42.7689 23.6298C45.9633 23.9088 66.2018 23.2688 67.3778 23.6298C67.4489 23.6517 68.253 24.5323 68.2967 24.7128H68.2913Z" fill="#C1C0BE"/>
<path d="M67.531 22.1147C68.4061 22.8476 68.5429 23.6025 68.2913 24.7183C68.2475 24.5378 67.438 23.6572 67.3723 23.6353C66.1963 23.2743 45.9578 23.9142 42.7634 23.6353C42.5774 24.3354 42.922 25.2215 42.4899 25.1504C42.3969 24.2588 42.5555 22.6562 43.2502 22.0053C43.387 21.9506 43.6495 21.6935 43.737 21.6825C44.8584 21.4856 65.3758 21.5239 66.5026 21.6825C66.7925 21.7208 67.2465 21.9834 67.531 22.1147Z" fill="#EAE6E4"/>
<path d="M67.9685 30.4617C67.7333 30.8501 67.334 31.14 66.8855 31.222C65.7587 31.4244 45.1482 31.3752 44.016 31.222C42.7852 31.0524 42.1671 29.7889 42.3914 28.6183C50.6473 28.6548 58.9031 28.6913 67.159 28.7277C67.9412 29.3349 67.1043 30.2374 67.974 30.4617H67.9685Z" fill="#C1C0BE"/>
<path d="M66.1251 26.5562C66.1744 26.8516 67.3285 27.1688 67.695 27.5299C68.4498 28.2738 68.51 29.5646 67.9685 30.4562C67.0988 30.232 67.9411 29.3294 67.1535 28.7223C58.8976 28.6858 50.6418 28.6494 42.3859 28.6129C42.5555 27.7104 44.0871 27.0321 44.4481 26.5508C44.4481 26.6273 44.4207 26.7367 44.5028 26.7695C45.5092 27.1196 63.1113 26.5015 65.8571 26.7695C65.9446 26.693 65.9993 26.5836 66.1306 26.5508L66.1251 26.5562Z" fill="#EAE6E4"/>
<path d="M67.4215 37.8296C66.2236 38.2289 46.9642 37.5178 43.4088 37.939C42.1726 37.4412 42.1617 35.5596 43.2447 34.8485C43.2502 34.7391 42.5336 34.6188 42.4844 33.8202C50.7038 33.8567 58.9232 33.8931 67.1426 33.9296L67.4161 37.8296H67.4215Z" fill="#C1C0BE"/>
<path d="M67.6403 32.409C69.0625 33.8913 67.6185 34.8048 67.6403 35.0673C67.6513 35.1986 68.1928 35.3736 68.2912 35.7182C68.4827 36.4184 68.1983 37.578 67.4215 37.8296L67.148 33.9296C58.9287 33.8931 50.7093 33.8567 42.4899 33.8202C42.4242 32.7207 43.3924 32.3871 43.4635 32.305C47.101 32.3269 65.7259 31.9221 67.2574 32.1956C67.2793 32.1956 67.5036 32.3816 67.6349 32.4144L67.6403 32.409Z" fill="#EAE6E4"/>
<path d="M66.88 31.2165C66.8308 32.2284 67.066 31.8127 67.6403 32.409C67.5091 32.3761 67.2848 32.1956 67.2629 32.1902C65.7368 31.9167 47.1065 32.3214 43.469 32.2996C43.8027 31.9221 43.9886 31.7744 44.0105 31.2165C45.1428 31.3697 65.7587 31.4189 66.88 31.2165Z" fill="#1C1C1F"/>
<path d="M65.6876 21.0316C65.7313 22.0272 66.2947 21.0863 67.5309 22.1147C67.2465 21.9834 66.7925 21.7208 66.5026 21.6825C65.3758 21.5239 44.8583 21.4856 43.737 21.6825C43.6495 21.699 43.3869 21.956 43.2502 22.0053C44.2348 21.0809 44.3934 22.0436 45.0388 21.1356L54.3048 21.0262C58.1009 21.0426 61.8915 21.0152 65.6876 21.0262V21.0316Z" fill="#1C1C1F"/>
<path d="M54.3103 21.0316L45.0443 21.141C44.3989 22.0436 44.2403 21.0863 43.2557 22.0108C42.561 22.6562 42.4024 24.2589 42.4954 25.1559C42.6595 26.7312 44.4208 25.7904 44.6614 26.2937C44.5958 26.3812 44.5083 26.4796 44.4427 26.5672C44.0816 27.0485 42.5555 27.7268 42.3805 28.6293C42.1562 29.7998 42.7743 31.0634 44.0051 31.2329C43.9832 31.7909 43.7972 31.944 43.4635 32.316C43.3924 32.398 42.4243 32.7372 42.4899 33.8311C42.5391 34.6352 43.2557 34.7555 43.2502 34.8595C42.1672 35.5706 42.1781 37.4522 43.4143 37.9499C46.9643 37.5288 66.2291 38.2398 67.427 37.8405C68.1983 37.5835 68.4882 36.4239 68.2967 35.7292C68.2038 35.3846 67.6568 35.2095 67.6458 35.0783C67.6239 34.8212 69.068 33.9077 67.6458 32.4199C67.0715 31.8237 66.8363 32.2394 66.8855 31.2275C67.334 31.1454 67.7333 30.8555 67.9685 30.4672C68.5155 29.5756 68.4554 28.2847 67.6951 27.5408C67.3286 27.1798 66.1744 26.8625 66.1252 26.5672C67.252 26.3046 68.0123 25.9491 68.2913 24.7238C68.5484 23.6134 68.4061 22.8531 67.531 22.1201C66.2948 21.0918 65.7314 22.0272 65.6876 21.0371C66.4315 17.881 70.3698 18.8054 70.7801 21.688C70.8785 22.3882 70.8895 29.2638 70.8895 30.686C70.8895 32.0315 70.8895 39.1424 70.7801 39.7386C70.5448 41.0459 69.2758 41.5874 68.0725 41.5819C70.7582 43.2776 73.6189 44.7654 76.2007 46.6252C76.8133 47.0682 78.9903 49.1468 79.1818 49.1194L80.6477 47.008L76.0968 43.9176C76.1843 43.7535 76.3265 43.6331 76.4195 43.4854C78.1972 44.7326 79.9421 45.9961 81.5119 47.4949C81.2111 48.0254 79.778 49.6773 79.778 50.0438C80.2922 50.826 81.8073 56.2084 82.0535 56.4381C82.316 56.6788 82.7919 56.3178 83.41 56.6022C84.4821 57.0945 84.4875 60.4967 84.5477 61.5907C84.6571 63.527 84.6681 78.3121 84.5477 79.2037C84.2359 81.5776 81.5885 83.8202 79.9421 85.4393C77.787 87.5507 71.7701 93.2394 69.2102 94.0051C68.1545 94.3224 66.7816 94.3661 65.6876 94.4373C62.0337 94.6779 58.3471 94.388 54.6877 94.6561C40.3731 93.8903 42.8783 96.4174 32.6277 86.96C30.2101 84.7282 26.6875 82.316 26.3429 79.0998C26.1733 77.5463 26.3265 60.9289 26.5617 59.2605C27.1086 55.3551 28.498 57.0562 29.0559 56.4436C29.1981 56.2849 30.0733 52.8936 30.2483 52.3248C30.8336 50.4377 31.9331 50.5799 29.5974 47.5003C30.2155 45.9906 33.8913 44.2622 33.935 43.9777C33.946 43.9176 33.4756 43.0861 33.3935 42.9494C33.4209 42.933 33.6397 42.5884 33.7709 42.5173C33.9241 42.7361 34.1046 42.9494 34.2578 43.1682C34.5422 43.5675 34.7719 44.1418 35.0181 44.5794C34.5313 45.0936 30.9485 47.1284 30.8993 47.4511C30.8829 47.5605 31.6869 49.021 31.8182 49.021C33.1528 48.0528 34.4164 46.9096 35.7729 45.9852C38.0757 44.4099 40.5043 42.9822 42.9275 41.5929C41.9375 41.396 40.8271 41.2537 40.3238 40.2363C40.2144 40.0121 40.0285 39.4213 40.0011 39.208C39.8644 38.1742 39.9027 32.7426 39.8917 31.1345C39.8808 29.8381 39.9245 21.9123 40.0011 21.4309C40.0066 21.3927 40.198 20.78 40.2199 20.7253C40.9966 18.8273 45.0662 18.2858 44.8255 21.0481C47.9871 21.059 51.1487 21.0371 54.3103 21.0481V21.0316Z" fill="#0C0B09"/>
<path d="M80.4344 65.797C80.5274 68.8273 80.3961 71.8686 80.325 74.9044C80.2976 76.0804 80.5109 77.2455 80.4344 78.427C76.8516 82.7427 72.7328 86.8232 67.9138 89.755C66.8691 90.3895 65.6767 90.8053 64.61 91.3796L64.9328 88.2344C65.5727 87.9117 66.169 87.4139 66.7761 87.042C73.6189 82.8575 77.2892 77.4588 78.0495 69.3743C78.1698 68.7234 78.23 68.1928 78.2683 67.531C78.6293 61.3063 77.1907 57.5375 73.7174 52.5709C71.2833 49.0921 69.5275 47.369 65.3704 45.8484C65.6712 45.4655 66.2401 44.3169 66.344 43.7863C70.5886 45.5859 74.3081 48.4029 77.8362 51.3183C79.5701 57.1163 80.2484 59.7036 80.4398 65.7916L80.4344 65.797Z" fill="#C12526"/>
<path d="M82.1684 62.1103C81.2494 63.0949 81.2276 64.8617 80.4344 65.797C80.243 59.7091 79.5702 57.1218 77.8308 51.3238C74.3027 48.4028 70.5832 45.5913 66.3386 43.7917C64.3913 42.9658 62.3675 42.2383 60.267 41.9484C60.3874 41.7624 60.4694 41.8937 60.5897 41.7843C57.8986 41.0678 55.0597 41.0568 52.2974 41.4069C51.8872 41.4671 51.6301 41.7241 51.5918 41.7296C50.3502 41.9648 45.3999 43.0861 44.7107 43.8957C44.3005 44.3825 44.7599 44.7982 44.7654 45.3069C44.4865 44.8091 44.3224 44.4755 44.2786 43.8957C40.2528 46.2696 34.5313 48.6818 32.5184 53.1069C31.6432 52.9483 31.769 52.2372 31.0032 52.6748C31.2877 51.9692 31.6104 51.2745 31.8729 50.5634C34.3946 47.5933 42.9987 42.8619 43.5238 42.3805C44.7928 41.21 42.3532 39.4323 45.9086 39.4541C46.0727 39.5745 45.8539 40.745 46.018 40.8654C46.1931 40.9912 48.3919 40.0777 50.2462 39.7823C53.7634 39.2189 57.5649 39.2244 61.0875 39.7823C64.5445 40.3293 64.9328 41.6859 65.0969 39.3502L66.9403 39.4596L67.0497 41.9539C71.2779 44.4591 75.2982 47.287 79.1381 50.3556C80.336 54.2337 81.8839 58.0189 82.1738 62.1158L82.1684 62.1103Z" fill="#EAE6E4"/>
<path d="M36.3145 71.6498C37.6108 76.4633 42.3915 81.3862 46.7181 83.6835C46.4884 83.6835 46.8057 84.1484 46.8275 84.1703C49.2015 86.8506 55.3277 87.5398 58.6425 86.8287L60.4858 89.8644C55.459 91.1335 50.0001 90.6576 45.4163 88.1305C38.5188 84.3235 32.5621 76.5946 33.1693 68.4007C33.4154 69.1884 35.3955 71.4037 36.3145 71.6553V71.6498Z" fill="#716F74"/>
<path d="M82.0589 76.2062C82.0261 77.1525 82.0042 78.1425 82.1683 79.0779C76.6328 84.7064 70.2331 92.7471 61.7329 93.0096C62.7831 92.6322 63.6528 91.8938 64.6046 91.3851C65.6712 90.8107 66.8691 90.395 67.9084 89.7605C72.7273 86.8287 76.8461 82.7481 80.4289 78.4324C80.511 77.2509 80.2922 76.0858 80.3195 74.9098L82.0535 76.2117L82.0589 76.2062Z" fill="#EAE6E4"/>
<path d="M82.059 76.2062L80.325 74.9043C80.3961 71.874 80.5274 68.8328 80.4344 65.797C81.2275 64.8617 81.2494 63.1004 82.1684 62.1103C82.1191 62.5807 83.421 62.1595 83.5796 62.3838C83.864 62.7831 83.7163 70.7199 83.3608 72.1421C83.1146 73.143 82.3707 74.1276 81.9496 75.0684C81.862 75.5553 82.0644 75.9491 82.059 76.2062Z" fill="#AFABAC"/>
<path d="M32.8466 81.7307C34.7282 83.6069 40.9474 88.486 43.3049 89.9684C44.2512 90.4825 45.2413 90.9529 46.1766 91.4835C47.1393 92.036 48.0473 92.7908 49.103 93.1628C46.7346 92.9823 43.6605 92.1344 41.571 90.942C39.6784 89.859 33.2787 84.0992 31.5447 82.2723C30.6641 80.3742 31.5229 80.5602 32.8466 81.7307Z" fill="#C1C0BE"/>
<path d="M66.7761 87.042C66.169 87.4139 65.5728 87.9117 64.9328 88.2344C63.5052 88.951 62.0283 89.4706 60.4858 89.859L58.6425 86.8232C61.2352 86.2653 64.9711 84.3289 65.3102 84.4383C65.9557 85.4612 67.3231 86.7302 66.7761 87.042Z" fill="#A59796"/>
<path d="M30.1335 65.797C29.8819 69.3852 29.7998 72.1639 30.2429 75.7686C29.8436 75.9874 29.6795 76.5453 29.1599 76.4195C27.5845 72.0928 27.4806 67.427 27.7486 62.8706C28.4105 63.713 29.313 65.611 30.1335 65.797Z" fill="#8A8788"/>
<path d="M32.5184 53.1179C31.129 56.1755 30.3906 62.1322 30.1335 65.5837C30.1335 65.6548 30.1335 65.7314 30.1335 65.8025C29.313 65.6111 28.4105 63.7185 27.7486 62.8761C27.6939 62.3455 28.8153 62.9418 28.9411 62.6026C28.9465 59.5176 29.8491 55.5629 31.0032 52.6858C31.769 52.2536 31.6432 52.9647 32.5184 53.1179Z" fill="#D2C0B8"/>
<path d="M32.8465 81.7307C31.5228 80.5602 30.6641 80.3742 31.5447 82.2723C29.8764 80.5164 27.9291 79.1708 29.1599 76.4195C29.6795 76.5453 29.8436 75.9874 30.2429 75.7686C30.6422 79.0122 30.5 79.3951 32.8465 81.7307Z" fill="#EAE6E4"/>
<path d="M61.2461 46.9369C64.5882 47.6589 67.6568 49.3984 70.4081 51.3839C72.421 52.8334 72.8039 54.3377 73.7119 52.5764C77.1853 57.543 78.6239 61.3117 78.2629 67.5364C78.3449 66.1909 77.0595 67.1973 75.0083 67.427C74.7731 52.3138 56.0114 41.664 42.5446 53.2273C38.661 56.5639 35.9698 61.3774 35.7675 66.5628L33.0599 65.6931C33.224 61.4704 34.5094 57.8384 36.9599 54.4197C37.9062 53.1015 39.0056 52.0239 40.1051 50.8424C42.3969 50.186 44.47 48.6271 46.7728 47.8066C51.3566 46.1766 56.4983 45.9141 61.2461 46.9369Z" fill="#AFABAC"/>
<path d="M66.7762 87.042C67.3231 86.7357 65.9611 85.4612 65.3102 84.4383C64.9711 84.3289 61.2352 86.2653 58.6425 86.8232C55.3277 87.5343 49.2015 86.8505 46.8275 84.1648C46.8057 84.1429 46.4884 83.678 46.7182 83.678C53.7251 87.3975 61.4321 85.8058 67.6951 81.4025C71.152 78.9685 73.8924 75.2982 74.6856 71.1028L77.5573 71.2122C77.7049 71.1028 77.9948 69.6533 78.0441 69.3688C77.2838 77.4533 73.6135 82.8521 66.7707 87.0365L66.7762 87.042Z" fill="#BBA39E"/>
<path d="M65.3649 45.8539C69.5166 47.3745 71.2779 49.0975 73.712 52.5764C72.804 54.3377 72.4211 52.8334 70.4082 51.3839C67.6568 49.4038 64.5882 47.659 61.2461 46.9369C61.4266 45.8101 61.2844 46.2587 60.5952 45.6351C61.1039 45.8211 64.3311 46.7728 64.5499 46.7181C64.7742 46.4556 65.1626 46.1055 65.3649 45.8484V45.8539Z" fill="#EAE6E4"/>
<path d="M66.3385 43.7917C66.2346 44.3168 65.6657 45.4655 65.3649 45.8539C65.168 46.1055 64.7796 46.4556 64.5499 46.7236C64.3311 46.7728 61.0984 45.8211 60.5952 45.6406C60.4147 45.5749 59.6653 45.4491 59.6215 45.3671C59.5723 45.0662 59.72 44.842 59.7309 44.552C59.7473 44.1145 59.8184 43.9722 59.8403 43.7917C59.9169 43.1518 59.906 42.5227 60.2724 41.9484C62.3729 42.2328 64.3967 42.9658 66.344 43.7917H66.3385Z" fill="#0C0B09"/>
<path d="M78.2628 67.531C78.2246 68.1874 78.1644 68.7234 78.044 69.3743C77.9948 69.6588 77.6994 71.1083 77.5572 71.2177L74.6855 71.1083C74.9481 69.7135 75.0356 68.8492 75.0083 67.4216C77.054 67.1919 78.3449 66.1854 78.2628 67.531Z" fill="#D2C0B8"/>
<path d="M36.9654 54.4142C34.5149 57.8329 33.2295 61.4649 33.0654 65.6876C33.038 66.4425 33.1748 67.2958 32.956 68.0178L33.1748 68.3952C32.5676 76.5891 38.5243 84.318 45.4218 88.125L46.1821 91.4835C45.2468 90.9475 44.2567 90.4825 43.3104 89.9684C40.9475 88.486 34.7337 83.6069 32.8521 81.7307C30.511 79.3951 30.6477 79.0122 30.2484 75.7686C29.8053 72.1639 29.8929 69.3852 30.139 65.797C30.139 65.7259 30.139 65.6493 30.139 65.5782C30.5 66.6284 31.78 67.0824 32.6333 67.6896C32.9943 63.1004 33.678 57.8384 36.9709 54.4088L36.9654 54.4142Z" fill="#C12526"/>
<path d="M44.7709 45.3124C45.0608 45.8211 45.0717 45.9359 45.0936 45.9633C43.2831 47.4675 41.7078 49.1194 40.1051 50.8424C39.0111 52.0239 37.9062 53.1015 36.9599 54.4197C33.6671 57.8438 32.9833 63.1113 32.6223 67.7005C31.7745 67.0879 30.4891 66.6339 30.1281 65.5892C30.3851 62.1377 31.1236 56.181 32.5129 53.1233C34.5258 48.6982 40.2473 46.2805 44.2731 43.9121C44.3169 44.4919 44.481 44.8255 44.7599 45.3233L44.7709 45.3124Z" fill="#C12526"/>
<path d="M51.5973 41.7351C52.0677 41.6257 51.9801 44.3442 51.92 44.6615C51.8981 44.7818 51.9364 44.9185 51.92 45.0389C50.7221 45.4765 46.7564 47.0737 45.7937 46.6087C45.75 46.5869 45.1428 46.0235 45.0881 45.9578C45.0662 45.9305 45.0498 45.8156 44.7654 45.3069C44.7599 44.7982 44.3005 44.3825 44.7107 43.8957C45.3999 43.0861 50.3501 41.9593 51.5918 41.7296L51.5973 41.7351Z" fill="#0C0B09"/>
<path d="M35.773 66.5573C35.7128 68.0451 35.9261 70.2112 36.3145 71.6498C35.401 71.4036 33.4154 69.1883 33.1693 68.3952L32.9505 68.0178C33.1693 67.2958 33.0271 66.4425 33.0599 65.6876L35.7675 66.5573H35.773Z" fill="#A59796"/>
<path d="M59.7255 44.5521C59.7146 44.842 59.5669 45.0662 59.6161 45.3671C59.6599 45.4437 60.4147 45.5749 60.5897 45.6406C61.2789 46.2641 61.4212 45.8156 61.2406 46.9424C56.4928 45.9141 51.3511 46.1821 46.7674 47.8121C44.4646 48.6326 42.3915 50.1915 40.0996 50.8479C41.7023 49.1249 43.2721 47.4784 45.0881 45.9688C45.1428 46.0344 45.75 46.5978 45.7937 46.6197C46.751 47.0791 50.7221 45.4874 51.92 45.0498C51.9364 44.9295 51.8981 44.7927 51.92 44.6724C52.3904 44.7107 52.3084 44.4591 53.4351 44.4536C54.8628 44.4481 56.2193 44.5028 57.6634 44.4536C58.3635 44.4317 59.0746 44.2622 59.7255 44.563V44.5521Z" fill="#D9D0CD"/>
<path d="M60.267 41.9484C59.9005 42.5227 59.9115 43.1463 59.8349 43.7918C59.359 43.5401 57.822 43.376 57.6688 43.9012C57.6688 43.83 57.6962 43.7042 57.6141 43.6824C57.4117 43.6331 53.6649 43.562 53.4953 43.6824C53.375 43.7699 53.4734 44.2622 53.4406 44.4427C52.3138 44.4481 52.3904 44.6943 51.9254 44.6615C51.9801 44.3442 52.0677 41.6257 51.6027 41.7351C51.641 41.7296 51.8981 41.4725 52.3083 41.4124C55.0706 41.0623 57.9095 41.0732 60.6007 41.7898C60.4748 41.8992 60.3928 41.7679 60.2779 41.9539L60.267 41.9484Z" fill="#D2C0B8"/>
<path d="M59.8349 43.7918C59.813 43.9723 59.7419 44.109 59.7255 44.5521C59.0746 44.2512 58.369 44.4208 57.6633 44.4427C57.6852 44.2676 57.6251 44.0215 57.6633 43.9012C57.822 43.3815 59.359 43.5401 59.8294 43.7918H59.8349Z" fill="#D9D0CD"/>
<path d="M57.6688 43.9012C57.6305 44.0215 57.6907 44.2676 57.6688 44.4427C56.2247 44.4919 54.8682 44.4372 53.4406 44.4427C53.4734 44.2676 53.3749 43.7699 53.4953 43.6824C53.6648 43.562 57.4117 43.6331 57.6141 43.6824C57.6961 43.7042 57.6688 43.8246 57.6688 43.9012Z" fill="#0C0B09"/>
<path d="M75.0138 67.4216C75.0357 68.8492 74.9536 69.7135 74.6911 71.1083C73.8979 75.3037 71.1575 78.9739 67.7006 81.408C61.4376 85.8167 53.736 87.403 46.7236 83.6835C42.3915 81.3862 37.6108 76.4687 36.32 71.6498C35.9316 70.2112 35.7183 68.0452 35.7784 66.5573C35.9808 61.3719 38.6665 56.5584 42.5556 53.2218C56.0224 41.6585 74.784 52.3138 75.0193 67.4216H75.0138Z" fill="#0C0B09"/>
<path d="M67.2083 60.267C63.6146 62.3182 60.3545 64.8781 57.0179 67.3122C55.459 65.6822 52.6201 67.7826 53.9821 69.8065C50.3611 73.9472 59.4575 77.0595 62.3838 77.9347C62.6902 78.0277 63.1442 77.9675 63.4122 78.0441C63.4395 78.0496 63.7896 78.3012 63.8443 78.3668C63.6474 78.5528 63.4888 78.7169 63.3028 78.9083C63.1113 79.1107 62.6956 79.1217 62.7613 79.5046C62.9746 79.8546 64.2655 81.955 64.2764 82.1082C64.3694 83.2076 57.0124 85.4612 55.7653 85.1987C57.0671 84.5751 57.543 80.8556 55.9841 80.5384C53.282 79.9859 54.4854 83.8586 54.1408 85.3081C53.5336 85.7402 46.0508 83.2678 45.6296 81.7855L46.8768 79.2365C45.8211 78.8591 45.6242 80.0953 44.7107 81.0799C42.6322 79.975 41.1389 78.2082 39.8863 76.2554C40.1871 75.8999 42.2657 74.8442 42.2711 74.5215C42.2711 74.4613 41.746 73.6791 41.4561 73.7065C41.3303 73.7174 39.7277 74.97 39.394 75.1177C38.6774 75.1177 36.9927 69.0352 37.4413 68.0725C38.3821 68.7672 40.942 69.5767 41.5054 68.1272C42.1891 66.3714 40.1871 65.9666 40.0394 66.0159C39.7003 66.1307 40.6739 67.3067 37.2772 66.6121C37.496 63.7021 38.207 60.7046 39.9355 58.3198C41.8937 59.917 43.8793 60.9179 42.2657 59.0801L47.0354 55.284C47.1503 55.3824 47.9106 55.8857 48.009 55.6614L47.3581 54.4143C48.3044 55.8802 49.0264 56.9031 51.4222 56.4764C54.0751 56.0005 53.2601 53.189 53.9712 53.3312C54.3869 54.7753 56.4928 54.4033 56.8976 53.0085C58.9816 54.365 61.8533 55.7708 63.7787 57.2367C64.9328 58.1119 65.994 59.5724 67.1919 60.2725L67.2083 60.267Z" fill="#EAE6E4"/>
<path d="M69.2649 61.0273C69.0352 62.4714 69.3689 64.9656 69.9159 66.3386C68.975 66.705 68.7453 68.2749 70.1347 68.8328L68.5101 73.061C67.8811 69.4017 66.5136 67.3669 64.1725 64.6046C64.632 64.2108 67.9358 61.0273 67.9686 60.7538C68.0342 60.1686 67.2575 60.2944 67.2083 60.267C66.0104 59.5669 64.9492 58.1119 63.7951 57.2312C61.8697 55.7653 58.9925 54.3596 56.914 53.003C57.5704 50.744 55.7708 49.8414 56.099 49.6445C59.3864 49.8141 62.5808 50.8315 65.261 52.735C62.6902 55.9732 63.5106 56.9742 66.1799 53.55C67.9686 54.9339 69.3579 56.6624 70.6762 58.4838C68.6851 60.2889 66.3003 62.6792 69.2649 61.0328V61.0273Z" fill="#BBA39E"/>
<path d="M53.9821 53.3312C53.271 53.189 54.086 56.0005 51.4332 56.4764C49.0374 56.9085 48.3153 55.8802 47.369 54.4143C47.1776 54.1134 46.193 52.6201 46.3407 52.3521C48.7146 50.9026 51.4277 49.9454 54.2009 49.8032C54.0313 50.8862 53.6813 52.2646 53.9821 53.3258V53.3312Z" fill="#D2C0B8"/>
<path d="M64.1725 64.6046C66.5136 67.3669 67.881 69.4017 68.5101 73.061C68.4937 73.1431 68.439 73.2087 68.4007 73.2798C68.3077 73.4603 68.1819 73.6463 68.078 73.8213C67.9522 74.0292 67.1426 74.9044 66.8855 75.2326C66.3932 74.9974 66.4753 73.7448 66.4534 73.6627C65.5235 70.5504 62.4331 69.068 59.627 67.974C61.1476 66.9348 62.7831 65.8135 64.1779 64.6156L64.1725 64.6046Z" fill="#D9D0CD"/>
<path d="M63.3028 78.9138C63.4888 78.7223 63.6529 78.5528 63.8443 78.3723C65.1899 77.1032 65.6712 76.7422 66.8801 75.2271C67.1372 74.9044 67.9467 74.0292 68.0725 73.8159C70.4574 76.5399 71.6115 75.2982 69.6971 77.6666C69.2321 78.241 65.8791 81.3971 65.4142 81.408L63.3028 78.9138Z" fill="#D2C0B8"/>
<path d="M69.9159 66.3386C69.3689 64.9656 69.0352 62.4714 69.265 61.0273C71.2341 59.9333 71.2013 58.4237 72.5195 61.9463C72.711 62.4604 73.7995 66.53 73.3345 66.6613C72.5359 66.4698 70.5832 66.076 69.9213 66.3386H69.9159Z" fill="#A59796"/>
<path d="M68.4007 73.2798C68.439 73.2087 68.4937 73.1431 68.5101 73.061L70.1346 68.8328C72.8258 69.9104 73.9089 65.9557 73.2798 70.2987C73.1868 70.9332 71.9014 75.0247 71.3818 75.1232L68.4007 73.2798Z" fill="#A59796"/>
<path d="M47.0463 55.284L42.2766 59.08C42.0797 58.8558 40.6575 57.6251 40.652 57.5102C42.0195 55.82 43.5784 54.1955 45.4765 53.1179C45.8539 53.5719 46.833 55.1035 47.0463 55.284Z" fill="#D2C0B8"/>
<path d="M55.6067 70.5668C55.6833 70.7801 55.4371 70.9661 55.4973 71.163C55.6395 71.606 62.4933 75.4404 63.2481 75.6592C63.817 75.8288 63.8334 75.692 64.167 75.6592C64.1889 75.6592 64.1342 75.8452 64.5992 75.6592C64.5609 75.796 64.8344 75.7577 64.818 75.8233C64.6867 76.2281 63.8279 77.7323 63.4067 78.0441C63.1332 77.973 62.6847 78.0277 62.3784 77.9347C59.452 77.0595 50.3556 73.9417 53.9767 69.8065C54.283 70.2605 55.0597 70.5668 55.6012 70.5668H55.6067Z" fill="#D2C0B8"/>
<path d="M59.6216 67.9686C62.4331 69.0626 65.5235 70.5449 66.448 73.6573C66.4698 73.7393 66.3878 74.9974 66.8801 75.2271C65.6712 76.7423 65.1899 77.1033 63.8443 78.3723C63.7896 78.3066 63.4395 78.055 63.4122 78.0496C63.8334 77.7323 64.6921 76.2336 64.8234 75.8288C64.8453 75.7632 64.5718 75.8069 64.6046 75.6647C64.6484 75.5115 65.7369 73.9253 64.4405 72.7383C64.167 72.4867 58.3799 69.3197 57.8821 69.161C58.3799 68.6523 59.0418 68.3624 59.6161 67.9686H59.6216Z" fill="#D9D0CD"/>
<path d="M64.1725 64.6046C62.7722 65.8025 61.1422 66.9238 59.6216 67.9631C59.0472 68.3569 58.3854 68.6468 57.8876 69.1555C57.7837 69.1227 57.5868 69.1774 57.4555 69.1555C57.5868 68.5921 57.4446 67.7552 57.0234 67.3122C60.36 64.8781 63.62 62.3182 67.2137 60.267C67.263 60.2943 68.0342 60.1685 67.974 60.7538C67.9467 61.0218 64.6374 64.2108 64.178 64.6046H64.1725Z" fill="#C12526"/>
<path d="M57.0179 67.3177C57.4446 67.7607 57.5813 68.5976 57.4501 69.161C57.4336 69.2266 57.0507 69.9924 57.0179 70.0307C56.6897 70.3698 56.0771 70.5722 55.6067 70.5722C55.0652 70.5722 54.2885 70.2659 53.9822 69.8119C52.6202 67.7881 55.459 65.6931 57.0179 67.3177Z" fill="#0C0B09"/>
<path d="M64.1725 75.6647C63.8389 75.6975 63.8225 75.8342 63.2536 75.6647C62.4988 75.4404 55.645 71.606 55.5028 71.1684C55.4372 70.9715 55.6888 70.7855 55.6122 70.5722C56.0826 70.5722 56.6952 70.3698 57.0234 70.0307C58.5933 71.0536 66.1143 73.4986 64.178 75.6701L64.1725 75.6647Z" fill="#C12526"/>
<path d="M57.8876 69.161C58.3854 69.3196 64.1725 72.4867 64.446 72.7383C65.7369 73.9252 64.6484 75.5115 64.6101 75.6647C64.1451 75.8506 64.1998 75.6647 64.178 75.6647C66.1143 73.4931 58.5932 71.0536 57.0234 70.0252C57.0562 69.9924 57.4446 69.2212 57.4555 69.1555C57.5868 69.1774 57.7837 69.1227 57.8876 69.1555V69.161Z" fill="#EAE6E4"/>
</svg>
