<svg width="111" height="111" viewBox="0 0 111 111" fill="none" xmlns="http://www.w3.org/2000/svg">
<path d="M45.203 17.9959C45.2577 18.3842 44.9787 19.1172 45.5804 19.0789C48.1294 18.6194 64.3858 19.3196 65.3102 18.9695C65.4415 18.9203 65.8353 18.1162 65.797 17.8865C67.1153 18.1709 69.347 18.3405 70.4027 19.1883C71.1794 19.8119 71.7482 21.0863 70.7801 21.6826C70.3644 18.7999 66.4261 17.8755 65.6876 21.0316C61.8915 21.0207 58.1009 21.0481 54.3048 21.0316C51.1433 21.0207 47.9817 21.0426 44.8201 21.0316C45.0553 18.2694 40.9912 18.8109 40.2145 20.7089C39.2682 20.326 39.848 19.1664 39.837 18.4335C41.9758 19.0242 43.294 18.056 44.9295 17.7825C45.3124 17.7169 45.1811 18.0013 45.203 18.0013V17.9959Z" fill="#EAE6E4"/>
<path d="M68.2913 24.7128C68.0123 25.9381 67.252 26.2936 66.1252 26.5562C65.9994 26.5835 65.9447 26.6929 65.8517 26.775C63.1058 26.507 45.5038 27.1251 44.4974 26.775C44.4153 26.7476 44.4427 26.6328 44.4427 26.5562C44.5083 26.4687 44.5958 26.3757 44.6615 26.2827C44.4153 25.7795 42.654 26.7203 42.4954 25.145C42.9275 25.2161 42.5774 24.33 42.7689 23.6298C45.9633 23.9088 66.2018 23.2688 67.3778 23.6298C67.4489 23.6517 68.253 24.5323 68.2968 24.7128H68.2913Z" fill="#C1C0BE"/>
<path d="M67.531 22.1147C68.4061 22.8476 68.5429 23.6025 68.2913 24.7183C68.2475 24.5378 67.438 23.6572 67.3723 23.6353C66.1963 23.2743 45.9578 23.9142 42.7634 23.6353C42.5774 24.3354 42.922 25.2215 42.4899 25.1504C42.3969 24.2588 42.5555 22.6562 43.2502 22.0053C43.387 21.9506 43.6495 21.6935 43.737 21.6825C44.8584 21.4856 65.3758 21.5239 66.5026 21.6825C66.7925 21.7208 67.2465 21.9834 67.531 22.1147Z" fill="#EAE6E4"/>
<path d="M67.9686 30.4617C67.7334 30.8501 67.3341 31.14 66.8855 31.222C65.7587 31.4244 45.1483 31.3752 44.016 31.222C42.7853 31.0524 42.1672 29.7889 42.3915 28.6183C50.6473 28.6548 58.9032 28.6913 67.159 28.7277C67.9412 29.3349 67.1043 30.2374 67.974 30.4617H67.9686Z" fill="#C1C0BE"/>
<path d="M66.1252 26.5562C66.1744 26.8516 67.3286 27.1688 67.6951 27.5299C68.4499 28.2738 68.5101 29.5646 67.9686 30.4562C67.0988 30.232 67.9412 29.3294 67.1535 28.7223C58.8977 28.6858 50.6418 28.6494 42.386 28.6129C42.5556 27.7104 44.0871 27.0321 44.4481 26.5508C44.4481 26.6273 44.4208 26.7367 44.5028 26.7695C45.5093 27.1196 63.1113 26.5015 65.8572 26.7695C65.9447 26.693 65.9994 26.5836 66.1307 26.5508L66.1252 26.5562Z" fill="#EAE6E4"/>
<path d="M67.4216 37.8296C66.2237 38.2289 46.9643 37.5178 43.4089 37.939C42.1727 37.4412 42.1617 35.5596 43.2448 34.8485C43.2502 34.7391 42.5337 34.6188 42.4845 33.8202C50.7038 33.8567 58.9232 33.8931 67.1426 33.9296L67.4161 37.8296H67.4216Z" fill="#C1C0BE"/>
<path d="M67.6404 32.409C69.0626 33.8913 67.6185 34.8048 67.6404 35.0673C67.6513 35.1986 68.1928 35.3736 68.2913 35.7182C68.4827 36.4184 68.1983 37.578 67.4216 37.8296L67.1481 33.9296C58.9287 33.8931 50.7093 33.8567 42.4899 33.8202C42.4243 32.7207 43.3925 32.3871 43.4636 32.305C47.101 32.3269 65.7259 31.9221 67.2575 32.1956C67.2794 32.1956 67.5036 32.3816 67.6349 32.4144L67.6404 32.409Z" fill="#EAE6E4"/>
<path d="M66.8801 31.2165C66.8308 32.2284 67.066 31.8127 67.6404 32.409C67.5091 32.3761 67.2848 32.1956 67.2629 32.1902C65.7369 31.9167 47.1065 32.3214 43.469 32.2996C43.8027 31.9221 43.9887 31.7744 44.0105 31.2165C45.1428 31.3697 65.7587 31.4189 66.8801 31.2165Z" fill="#1C1C1F"/>
<path d="M65.6876 21.0316C65.7314 22.0272 66.2948 21.0863 67.531 22.1147C67.2465 21.9834 66.7926 21.7208 66.5026 21.6825C65.3759 21.5239 44.8584 21.4856 43.7371 21.6825C43.6495 21.699 43.387 21.956 43.2502 22.0053C44.2348 21.0809 44.3934 22.0436 45.0389 21.1356L54.3048 21.0262C58.1009 21.0426 61.8915 21.0152 65.6876 21.0262V21.0316Z" fill="#1C1C1F"/>
<path d="M54.3103 21.0316L45.0443 21.141C44.3989 22.0436 44.2403 21.0863 43.2557 22.0108C42.561 22.6562 42.4024 24.2589 42.4954 25.1559C42.6595 26.7312 44.4208 25.7904 44.6614 26.2937C44.5958 26.3812 44.5083 26.4796 44.4427 26.5672C44.0816 27.0485 42.5555 27.7268 42.3805 28.6293C42.1562 29.7998 42.7743 31.0634 44.0051 31.2329C43.9832 31.7909 43.7972 31.944 43.4635 32.316C43.3924 32.398 42.4243 32.7372 42.4899 33.8311C42.5391 34.6352 43.2557 34.7555 43.2502 34.8595C42.1672 35.5706 42.1781 37.4522 43.4143 37.9499C46.9643 37.5288 66.2291 38.2398 67.427 37.8405C68.1983 37.5835 68.4882 36.4239 68.2967 35.7292C68.2038 35.3846 67.6568 35.2095 67.6458 35.0783C67.6239 34.8212 69.068 33.9077 67.6458 32.4199C67.0715 31.8237 66.8363 32.2394 66.8855 31.2275C67.334 31.1454 67.7333 30.8555 67.9685 30.4672C68.5155 29.5756 68.4554 28.2847 67.6951 27.5408C67.3286 27.1798 66.1744 26.8625 66.1252 26.5672C67.252 26.3046 68.0123 25.9491 68.2913 24.7238C68.5484 23.6134 68.4061 22.8531 67.531 22.1201C66.2948 21.0918 65.7314 22.0272 65.6876 21.0371C66.4315 17.881 70.3698 18.8054 70.7801 21.688C70.8785 22.3882 70.8895 29.2638 70.8895 30.686C70.8895 32.0315 70.8895 39.1424 70.7801 39.7386C70.5448 41.0459 69.2758 41.5874 68.0725 41.5819C70.7582 43.2776 73.6189 44.7654 76.2007 46.6252C76.8133 47.0682 78.9903 49.1468 79.1818 49.1194L80.6477 47.008L76.0968 43.9176C76.1843 43.7535 76.3265 43.6331 76.4195 43.4854C78.1972 44.7326 79.9421 45.9961 81.5119 47.4949C81.2111 48.0254 79.778 49.6773 79.778 50.0438C80.2922 50.826 81.8073 56.2084 82.0535 56.4381C82.316 56.6788 82.7919 56.3178 83.41 56.6022C84.4821 57.0945 84.4875 60.4967 84.5477 61.5907C84.6571 63.527 84.6681 78.3121 84.5477 79.2037C84.2359 81.5776 81.5885 83.8202 79.9421 85.4393C77.787 87.5507 71.7701 93.2394 69.2102 94.0051C68.1545 94.3224 66.7816 94.3661 65.6876 94.4373C62.0337 94.6779 58.3471 94.388 54.6877 94.6561C40.3731 93.8903 42.8783 96.4174 32.6277 86.96C30.2101 84.7282 26.6875 82.316 26.3429 79.0998C26.1733 77.5463 26.3265 60.9289 26.5617 59.2605C27.1086 55.3551 28.498 57.0562 29.0559 56.4436C29.1981 56.2849 30.0733 52.8936 30.2483 52.3248C30.8336 50.4377 31.9331 50.5799 29.5974 47.5003C30.2155 45.9906 33.8913 44.2622 33.935 43.9777C33.946 43.9176 33.4756 43.0861 33.3935 42.9494C33.4209 42.933 33.6397 42.5884 33.7709 42.5173C33.9241 42.7361 34.1046 42.9494 34.2578 43.1682C34.5422 43.5675 34.7719 44.1418 35.0181 44.5794C34.5313 45.0936 30.9485 47.1284 30.8993 47.4511C30.8829 47.5605 31.6869 49.021 31.8182 49.021C33.1528 48.0528 34.4164 46.9096 35.7729 45.9852C38.0757 44.4099 40.5043 42.9822 42.9275 41.5929C41.9375 41.396 40.8271 41.2537 40.3238 40.2363C40.2144 40.0121 40.0285 39.4213 40.0011 39.208C39.8644 38.1742 39.9027 32.7426 39.8917 31.1345C39.8808 29.8381 39.9245 21.9123 40.0011 21.4309C40.0066 21.3927 40.198 20.78 40.2199 20.7253C40.9966 18.8273 45.0662 18.2858 44.8255 21.0481C47.9871 21.059 51.1487 21.0371 54.3103 21.0481V21.0316Z" fill="#0C0B09"/>
<path d="M80.4344 65.797C80.5274 68.8273 80.3961 71.8686 80.325 74.9044C80.2976 76.0804 80.5109 77.2455 80.4344 78.427C76.8516 82.7427 72.7328 86.8232 67.9138 89.755C66.8691 90.3895 65.6767 90.8053 64.61 91.3796L64.9328 88.2344C65.5727 87.9117 66.169 87.4139 66.7761 87.042C73.6189 82.8575 77.2892 77.4588 78.0495 69.3743C78.1698 68.7234 78.23 68.1928 78.2683 67.531C78.6293 61.3063 77.1907 57.5375 73.7174 52.5709C71.2833 49.0921 69.5275 47.369 65.3704 45.8484C65.6712 45.4655 66.2401 44.3169 66.344 43.7863C70.5886 45.5859 74.3081 48.4029 77.8362 51.3183C79.5701 57.1163 80.2484 59.7036 80.4398 65.7916L80.4344 65.797Z" fill="#C12526"/>
<path d="M82.1683 62.1103C81.2494 63.0949 81.2275 64.8617 80.4344 65.797C80.2429 59.7091 79.5701 57.1218 77.8307 51.3238C74.3026 48.4028 70.5831 45.5913 66.3385 43.7917C64.3912 42.9658 62.3674 42.2383 60.267 41.9484C60.3873 41.7624 60.4693 41.8937 60.5897 41.7843C57.8985 41.0678 55.0596 41.0568 52.2974 41.4069C51.8871 41.4671 51.63 41.7241 51.5918 41.7296C50.3501 41.9648 45.3999 43.0861 44.7107 43.8957C44.3004 44.3825 44.7599 44.7982 44.7654 45.3069C44.4864 44.8091 44.3223 44.4755 44.2785 43.8957C40.2527 46.2696 34.5312 48.6818 32.5183 53.1069C31.6431 52.9483 31.769 52.2372 31.0032 52.6748C31.2876 51.9692 31.6103 51.2745 31.8729 50.5634C34.3945 47.5933 42.9986 42.8619 43.5237 42.3805C44.7927 41.21 42.3531 39.4323 45.9086 39.4541C46.0727 39.5745 45.8539 40.745 46.018 40.8654C46.193 40.9912 48.3919 40.0777 50.2462 39.7823C53.7633 39.2189 57.5648 39.2244 61.0874 39.7823C64.5444 40.3293 64.9328 41.6859 65.0969 39.3502L66.9402 39.4596L67.0496 41.9539C71.2778 44.4591 75.2982 47.287 79.138 50.3556C80.3359 54.2337 81.8839 58.0189 82.1738 62.1158L82.1683 62.1103Z" fill="#EAE6E4"/>
<path d="M36.3144 71.6498C37.6108 76.4633 42.3914 81.3862 46.7181 83.6835C46.4884 83.6835 46.8056 84.1484 46.8275 84.1703C49.2014 86.8506 55.3277 87.5398 58.6424 86.8287L60.4858 89.8644C55.459 91.1335 50 90.6576 45.4163 88.1305C38.5188 84.3235 32.5621 76.5946 33.1693 68.4007C33.4154 69.1884 35.3955 71.4037 36.3144 71.6553V71.6498Z" fill="#716F74"/>
<path d="M82.0589 76.2062C82.0261 77.1525 82.0042 78.1425 82.1683 79.0779C76.6328 84.7064 70.2331 92.7471 61.7329 93.0096C62.7831 92.6322 63.6528 91.8938 64.6046 91.3851C65.6712 90.8107 66.8691 90.395 67.9084 89.7605C72.7273 86.8287 76.8461 82.7481 80.4289 78.4324C80.5109 77.2509 80.2922 76.0858 80.3195 74.9098L82.0534 76.2117L82.0589 76.2062Z" fill="#EAE6E4"/>
<path d="M82.0589 76.2062L80.325 74.9043C80.3961 71.874 80.5274 68.8328 80.4344 65.797C81.2275 64.8617 81.2494 63.1004 82.1683 62.1103C82.1191 62.5807 83.4209 62.1595 83.5796 62.3838C83.864 62.7831 83.7163 70.7199 83.3608 72.1421C83.1146 73.143 82.3707 74.1276 81.9495 75.0684C81.862 75.5553 82.0644 75.9491 82.0589 76.2062Z" fill="#AFABAC"/>
<path d="M32.8465 81.7307C34.7282 83.6069 40.9474 88.486 43.3049 89.9684C44.2512 90.4825 45.2412 90.9529 46.1766 91.4835C47.1393 92.036 48.0473 92.7908 49.103 93.1628C46.7345 92.9823 43.6605 92.1344 41.571 90.942C39.6784 89.859 33.2786 84.0992 31.5447 82.2723C30.6641 80.3742 31.5228 80.5602 32.8465 81.7307Z" fill="#C1C0BE"/>
<path d="M66.7761 87.042C66.169 87.4139 65.5727 87.9117 64.9328 88.2344C63.5051 88.951 62.0283 89.4706 60.4858 89.859L58.6424 86.8232C61.2351 86.2653 64.9711 84.3289 65.3102 84.4383C65.9556 85.4612 67.3231 86.7302 66.7761 87.042Z" fill="#A59796"/>
<path d="M30.1335 65.797C29.8819 69.3852 29.7998 72.1639 30.2429 75.7686C29.8436 75.9874 29.6795 76.5453 29.1598 76.4195C27.5845 72.0928 27.4806 67.427 27.7486 62.8706C28.4105 63.713 29.313 65.611 30.1335 65.797Z" fill="#8A8788"/>
<path d="M32.5183 53.1179C31.129 56.1755 30.3906 62.1322 30.1335 65.5837C30.1335 65.6548 30.1335 65.7314 30.1335 65.8025C29.313 65.6111 28.4105 63.7185 27.7486 62.8761C27.6939 62.3455 28.8152 62.9418 28.941 62.6026C28.9465 59.5176 29.849 55.5629 31.0032 52.6858C31.769 52.2536 31.6432 52.9647 32.5183 53.1179Z" fill="#D2C0B8"/>
<path d="M32.8465 81.7307C31.5228 80.5602 30.664 80.3742 31.5447 82.2723C29.8764 80.5164 27.9291 79.1708 29.1598 76.4195C29.6795 76.5453 29.8436 75.9874 30.2429 75.7686C30.6422 79.0122 30.4999 79.3951 32.8465 81.7307Z" fill="#EAE6E4"/>
<path d="M61.2461 46.9369C64.5882 47.6589 67.6568 49.3984 70.4081 51.3839C72.421 52.8334 72.8039 54.3377 73.7119 52.5764C77.1853 57.543 78.6238 61.3117 78.2628 67.5364C78.3449 66.1909 77.0595 67.1973 75.0083 67.427C74.7731 52.3138 56.0114 41.664 42.5446 53.2273C38.661 56.5639 35.9698 61.3774 35.7674 66.5628L33.0598 65.6931C33.2239 61.4704 34.5094 57.8384 36.9599 54.4197C37.9061 53.1015 39.0056 52.0239 40.105 50.8424C42.3969 50.186 44.47 48.6271 46.7728 47.8066C51.3566 46.1766 56.4982 45.9141 61.2461 46.9369Z" fill="#AFABAC"/>
<path d="M66.7761 87.042C67.3231 86.7357 65.9611 85.4612 65.3102 84.4383C64.9711 84.3289 61.2351 86.2653 58.6424 86.8232C55.3277 87.5343 49.2014 86.8505 46.8275 84.1648C46.8056 84.1429 46.4884 83.678 46.7181 83.678C53.725 87.3975 61.4321 85.8058 67.6951 81.4025C71.152 78.9685 73.8924 75.2982 74.6855 71.1028L77.5572 71.2122C77.7049 71.1028 77.9948 69.6533 78.044 69.3688C77.2837 77.4533 73.6135 82.8521 66.7707 87.0365L66.7761 87.042Z" fill="#BBA39E"/>
<path d="M65.3649 45.8539C69.5165 47.3745 71.2778 49.0975 73.7119 52.5764C72.8039 54.3377 72.421 52.8334 70.4081 51.3839C67.6568 49.4038 64.5882 47.659 61.2461 46.9369C61.4266 45.8101 61.2844 46.2587 60.5952 45.6351C61.1039 45.8211 64.3311 46.7728 64.5499 46.7181C64.7741 46.4556 65.1625 46.1055 65.3649 45.8484V45.8539Z" fill="#EAE6E4"/>
<path d="M66.3385 43.7917C66.2346 44.3168 65.6657 45.4655 65.3649 45.8539C65.168 46.1055 64.7796 46.4556 64.5499 46.7236C64.3311 46.7728 61.0984 45.8211 60.5952 45.6406C60.4147 45.5749 59.6653 45.4491 59.6215 45.3671C59.5723 45.0662 59.72 44.842 59.7309 44.552C59.7473 44.1145 59.8184 43.9722 59.8403 43.7917C59.9169 43.1518 59.906 42.5227 60.2724 41.9484C62.3729 42.2328 64.3967 42.9658 66.344 43.7917H66.3385Z" fill="#0C0B09"/>
<path d="M78.2628 67.531C78.2245 68.1874 78.1644 68.7234 78.044 69.3743C77.9948 69.6588 77.6994 71.1083 77.5572 71.2177L74.6855 71.1083C74.9481 69.7135 75.0356 68.8492 75.0083 67.4216C77.054 67.1919 78.3449 66.1854 78.2628 67.531Z" fill="#D2C0B8"/>
<path d="M36.9653 54.4142C34.5148 57.8329 33.2294 61.4649 33.0653 65.6876C33.038 66.4425 33.1747 67.2958 32.9559 68.0178L33.1747 68.3952C32.5676 76.5891 38.5242 84.318 45.4217 88.125L46.1821 91.4835C45.2467 90.9475 44.2567 90.4825 43.3104 89.9684C40.9474 88.486 34.7336 83.6069 32.852 81.7307C30.5109 79.3951 30.6476 79.0122 30.2483 75.7686C29.8053 72.1639 29.8928 69.3852 30.1389 65.797C30.1389 65.7259 30.1389 65.6493 30.1389 65.5782C30.4999 66.6284 31.7799 67.0824 32.6332 67.6896C32.9942 63.1004 33.6779 57.8384 36.9708 54.4088L36.9653 54.4142Z" fill="#C12526"/>
<path d="M44.7708 45.3124C45.0607 45.8211 45.0717 45.9359 45.0935 45.9633C43.283 47.4675 41.7077 49.1194 40.105 50.8424C39.0111 52.0239 37.9061 53.1015 36.9599 54.4197C33.667 57.8438 32.9833 63.1113 32.6222 67.7005C31.7744 67.0879 30.489 66.6339 30.128 65.5892C30.3851 62.1377 31.1235 56.181 32.5129 53.1233C34.5258 48.6982 40.2472 46.2805 44.2731 43.9121C44.3168 44.4919 44.4809 44.8255 44.7599 45.3233L44.7708 45.3124Z" fill="#C12526"/>
<path d="M51.5972 41.7351C52.0676 41.6257 51.9801 44.3442 51.9199 44.6615C51.8981 44.7818 51.9364 44.9185 51.9199 45.0389C50.722 45.4765 46.7564 47.0737 45.7937 46.6087C45.7499 46.5869 45.1428 46.0235 45.0881 45.9578C45.0662 45.9305 45.0498 45.8156 44.7654 45.3069C44.7599 44.7982 44.3004 44.3825 44.7107 43.8957C45.3999 43.0861 50.3501 41.9593 51.5918 41.7296L51.5972 41.7351Z" fill="#0C0B09"/>
<path d="M35.7729 66.5573C35.7128 68.0451 35.9261 70.2112 36.3144 71.6498C35.401 71.4036 33.4154 69.1883 33.1693 68.3952L32.9505 68.0178C33.1693 67.2958 33.027 66.4425 33.0599 65.6876L35.7674 66.5573H35.7729Z" fill="#A59796"/>
<path d="M59.7255 44.5521C59.7145 44.842 59.5668 45.0662 59.6161 45.3671C59.6598 45.4437 60.4147 45.5749 60.5897 45.6406C61.2789 46.2641 61.4211 45.8156 61.2406 46.9424C56.4928 45.9141 51.3511 46.1821 46.7673 47.8121C44.4645 48.6326 42.3915 50.1915 40.0996 50.8479C41.7022 49.1249 43.2721 47.4784 45.0881 45.9688C45.1428 46.0344 45.75 46.5978 45.7937 46.6197C46.7509 47.0791 50.7221 45.4874 51.92 45.0498C51.9364 44.9295 51.8981 44.7927 51.92 44.6724C52.3904 44.7107 52.3083 44.4591 53.4351 44.4536C54.8628 44.4481 56.2193 44.5028 57.6633 44.4536C58.3635 44.4317 59.0745 44.2622 59.7255 44.563V44.5521Z" fill="#D9D0CD"/>
<path d="M60.267 41.9484C59.9005 42.5227 59.9114 43.1463 59.8348 43.7918C59.359 43.5401 57.8219 43.376 57.6688 43.9012C57.6688 43.83 57.6961 43.7042 57.6141 43.6824C57.4117 43.6331 53.6648 43.562 53.4953 43.6824C53.3749 43.7699 53.4734 44.2622 53.4406 44.4427C52.3138 44.4481 52.3904 44.6943 51.9254 44.6615C51.9801 44.3442 52.0676 41.6257 51.6027 41.7351C51.641 41.7296 51.8981 41.4725 52.3083 41.4124C55.0706 41.0623 57.9095 41.0732 60.6006 41.7898C60.4748 41.8992 60.3928 41.7679 60.2779 41.9539L60.267 41.9484Z" fill="#D2C0B8"/>
<path d="M59.8348 43.7918C59.813 43.9723 59.7419 44.109 59.7254 44.5521C59.0745 44.2512 58.3689 44.4208 57.6633 44.4427C57.6852 44.2676 57.625 44.0215 57.6633 43.9012C57.8219 43.3815 59.359 43.5401 59.8294 43.7918H59.8348Z" fill="#D9D0CD"/>
<path d="M57.6688 43.9012C57.6305 44.0215 57.6907 44.2676 57.6688 44.4427C56.2247 44.4919 54.8682 44.4372 53.4406 44.4427C53.4734 44.2676 53.3749 43.7699 53.4953 43.6824C53.6648 43.562 57.4117 43.6331 57.6141 43.6824C57.6961 43.7042 57.6688 43.8246 57.6688 43.9012Z" fill="#0C0B09"/>
<path d="M75.0137 67.4216C75.0356 68.8492 74.9536 69.7135 74.691 71.1083C73.8979 75.3037 71.1575 78.9739 67.7005 81.408C61.4375 85.8167 53.7359 87.403 46.7236 83.6835C42.3914 81.3862 37.6108 76.4687 36.3199 71.6498C35.9315 70.2112 35.7182 68.0452 35.7784 66.5573C35.9808 61.3719 38.6665 56.5584 42.5555 53.2218C56.0224 41.6585 74.784 52.3138 75.0192 67.4216H75.0137Z" fill="#0C0B09"/>
<path d="M67.2082 60.267C63.6145 62.3182 60.3545 64.8781 57.0178 67.3122C55.4589 65.6822 52.6201 67.7826 53.9821 69.8065C50.361 73.9472 59.4574 77.0595 62.3838 77.9347C62.6901 78.0277 63.1441 77.9675 63.4121 78.0441C63.4395 78.0496 63.7895 78.3012 63.8442 78.3668C63.6473 78.5528 63.4887 78.7169 63.3027 78.9083C63.1113 79.1107 62.6956 79.1217 62.7612 79.5046C62.9745 79.8546 64.2654 81.955 64.2764 82.1082C64.3693 83.2076 57.0124 85.4612 55.7652 85.1987C57.0671 84.5751 57.543 80.8556 55.984 80.5384C53.2819 79.9859 54.4853 83.8586 54.1407 85.3081C53.5335 85.7402 46.0508 83.2678 45.6296 81.7855L46.8767 79.2365C45.821 78.8591 45.6241 80.0953 44.7106 81.0799C42.6321 79.975 41.1388 78.2082 39.8862 76.2554C40.1871 75.8999 42.2656 74.8442 42.2711 74.5215C42.2711 74.4613 41.746 73.6791 41.4561 73.7065C41.3303 73.7174 39.7276 74.97 39.3939 75.1177C38.6774 75.1177 36.9927 69.0352 37.4412 68.0725C38.382 68.7672 40.9419 69.5767 41.5053 68.1272C42.189 66.3714 40.1871 65.9666 40.0394 66.0159C39.7002 66.1307 40.6739 67.3067 37.2771 66.6121C37.4959 63.7021 38.207 60.7046 39.9355 58.3198C41.8937 59.917 43.8792 60.9179 42.2656 59.0801L47.0353 55.284C47.1502 55.3824 47.9105 55.8857 48.009 55.6614L47.3581 54.4143C48.3044 55.8802 49.0264 56.9031 51.4222 56.4764C54.0751 56.0005 53.26 53.189 53.9711 53.3312C54.3868 54.7753 56.4927 54.4033 56.8975 53.0085C58.9815 54.365 61.8532 55.7708 63.7786 57.2367C64.9327 58.1119 65.9939 59.5724 67.1918 60.2725L67.2082 60.267Z" fill="#EAE6E4"/>
<path d="M69.2649 61.0273C69.0352 62.4714 69.3688 64.9656 69.9158 66.3386C68.975 66.705 68.7453 68.2749 70.1346 68.8328L68.51 73.061C67.881 69.4017 66.5135 67.3669 64.1724 64.6046C64.6319 64.2108 67.9357 61.0273 67.9685 60.7538C68.0342 60.1686 67.2574 60.2944 67.2082 60.267C66.0103 59.5669 64.9492 58.1119 63.795 57.2312C61.8696 55.7653 58.9925 54.3596 56.9139 53.003C57.5703 50.744 55.7707 49.8414 56.0989 49.6445C59.3863 49.8141 62.5807 50.8315 65.2609 52.735C62.6901 55.9732 63.5106 56.9742 66.1799 53.55C67.9685 54.9339 69.3579 56.6624 70.6761 58.4838C68.6851 60.2889 66.3002 62.6792 69.2649 61.0328V61.0273Z" fill="#BBA39E"/>
<path d="M53.9821 53.3312C53.271 53.189 54.086 56.0005 51.4331 56.4764C49.0373 56.9085 48.3153 55.8802 47.369 54.4143C47.1775 54.1134 46.193 52.6201 46.3407 52.3521C48.7146 50.9026 51.4276 49.9454 54.2008 49.8032C54.0313 50.8862 53.6812 52.2646 53.9821 53.3258V53.3312Z" fill="#D2C0B8"/>
<path d="M64.1724 64.6046C66.5135 67.3669 67.881 69.4017 68.51 73.061C68.4936 73.1431 68.4389 73.2087 68.4006 73.2798C68.3076 73.4603 68.1818 73.6463 68.0779 73.8213C67.9521 74.0292 67.1426 74.9044 66.8855 75.2326C66.3932 74.9974 66.4752 73.7448 66.4534 73.6627C65.5235 70.5504 62.433 69.068 59.627 67.974C61.1476 66.9348 62.7831 65.8135 64.1779 64.6156L64.1724 64.6046Z" fill="#D9D0CD"/>
<path d="M63.3027 78.9138C63.4887 78.7223 63.6528 78.5528 63.8442 78.3723C65.1898 77.1032 65.6712 76.7422 66.88 75.2271C67.1371 74.9044 67.9466 74.0292 68.0724 73.8159C70.4573 76.5399 71.6114 75.2982 69.697 77.6666C69.2321 78.241 65.879 81.3971 65.4141 81.408L63.3027 78.9138Z" fill="#D2C0B8"/>
<path d="M69.9158 66.3386C69.3688 64.9656 69.0351 62.4714 69.2649 61.0273C71.234 59.9333 71.2012 58.4237 72.5195 61.9463C72.7109 62.4604 73.7994 66.53 73.3345 66.6613C72.5359 66.4698 70.5831 66.076 69.9213 66.3386H69.9158Z" fill="#A59796"/>
<path d="M68.4006 73.2798C68.4389 73.2087 68.4936 73.1431 68.51 73.061L70.1346 68.8328C72.8258 69.9104 73.9088 65.9557 73.2798 70.2987C73.1868 70.9332 71.9013 75.0247 71.3817 75.1232L68.4006 73.2798Z" fill="#A59796"/>
<path d="M47.0463 55.284L42.2766 59.08C42.0796 58.8558 40.6575 57.6251 40.652 57.5102C42.0195 55.82 43.5784 54.1955 45.4764 53.1179C45.8539 53.5719 46.833 55.1035 47.0463 55.284Z" fill="#D2C0B8"/>
<path d="M55.6066 70.5668C55.6832 70.7801 55.437 70.9661 55.4972 71.163C55.6394 71.606 62.4932 75.4404 63.248 75.6592C63.8169 75.8288 63.8333 75.692 64.1669 75.6592C64.1888 75.6592 64.1341 75.8452 64.5991 75.6592C64.5608 75.796 64.8343 75.7577 64.8179 75.8233C64.6866 76.2281 63.8278 77.7323 63.4066 78.0441C63.1331 77.973 62.6846 78.0277 62.3783 77.9347C59.4519 77.0595 50.3555 73.9417 53.9766 69.8065C54.2829 70.2605 55.0596 70.5668 55.6011 70.5668H55.6066Z" fill="#D2C0B8"/>
<path d="M59.6215 67.9686C62.433 69.0626 65.5235 70.5449 66.4479 73.6573C66.4698 73.7393 66.3877 74.9974 66.88 75.2271C65.6712 76.7423 65.1898 77.1033 63.8442 78.3723C63.7895 78.3066 63.4395 78.055 63.4121 78.0496C63.8333 77.7323 64.6921 76.2336 64.8233 75.8288C64.8452 75.7632 64.5717 75.8069 64.6045 75.6647C64.6483 75.5115 65.7368 73.9253 64.4404 72.7383C64.167 72.4867 58.3798 69.3197 57.8821 69.161C58.3798 68.6523 59.0417 68.3624 59.616 67.9686H59.6215Z" fill="#D9D0CD"/>
<path d="M64.1724 64.6046C62.7721 65.8025 61.1421 66.9238 59.6215 67.9631C59.0472 68.3569 58.3853 68.6468 57.8876 69.1555C57.7836 69.1227 57.5867 69.1774 57.4554 69.1555C57.5867 68.5921 57.4445 67.7552 57.0233 67.3122C60.3599 64.8781 63.62 62.3182 67.2137 60.267C67.2629 60.2943 68.0342 60.1685 67.974 60.7538C67.9466 61.0218 64.6374 64.2108 64.1779 64.6046H64.1724Z" fill="#C12526"/>
<path d="M57.0178 67.3177C57.4445 67.7607 57.5812 68.5976 57.45 69.161C57.4335 69.2266 57.0507 69.9924 57.0178 70.0307C56.6896 70.3698 56.077 70.5722 55.6066 70.5722C55.0651 70.5722 54.2884 70.2659 53.9821 69.8119C52.6201 67.7881 55.4589 65.6931 57.0178 67.3177Z" fill="#0C0B09"/>
<path d="M64.1724 75.6647C63.8388 75.6975 63.8223 75.8342 63.2535 75.6647C62.4986 75.4404 55.6449 71.606 55.5027 71.1684C55.437 70.9715 55.6887 70.7855 55.6121 70.5722C56.0825 70.5722 56.6951 70.3698 57.0233 70.0307C58.5932 71.0536 66.1142 73.4986 64.1779 75.6701L64.1724 75.6647Z" fill="#C12526"/>
<path d="M57.8876 69.161C58.3853 69.3196 64.1724 72.4867 64.4459 72.7383C65.7368 73.9252 64.6483 75.5115 64.61 75.6647C64.1451 75.8506 64.1998 75.6647 64.1779 75.6647C66.1142 73.4931 58.5932 71.0536 57.0233 70.0252C57.0561 69.9924 57.4445 69.2212 57.4554 69.1555C57.5867 69.1774 57.7836 69.1227 57.8876 69.1555V69.161Z" fill="#EAE6E4"/>
</svg>
